<?xml version="1.0" standalone="no"?>
<!DOCTYPE svg PUBLIC "-//W3C//DTD SVG 20010904//EN"
 "http://www.w3.org/TR/2001/REC-SVG-20010904/DTD/svg10.dtd">
<svg version="1.0" xmlns="http://www.w3.org/2000/svg"
 width="48.000000pt" height="48.000000pt" viewBox="0 0 48.000000 48.000000"
 preserveAspectRatio="xMidYMid meet">

<g transform="translate(0.000000,48.000000) scale(0.100000,-0.100000)"
fill="#000000" stroke="none">
<path d="M256 464 c-9 -8 -16 -22 -16 -29 0 -18 27 -45 45 -45 18 0 45 27 45
45 0 18 -27 45 -45 45 -7 0 -21 -7 -29 -16z"/>
<path d="M111 373 c-24 -20 -58 -130 -44 -144 5 -5 24 -10 43 -11 l34 -3 22
80 c12 43 20 83 18 87 -9 14 -51 9 -73 -9z"/>
<path d="M228 348 c-23 -18 -52 -133 -39 -156 5 -9 25 -33 45 -51 30 -29 36
-42 36 -75 0 -54 13 -75 37 -60 12 7 19 26 21 54 3 43 -13 100 -29 100 -17 0
-30 41 -23 75 6 33 7 34 27 20 12 -8 32 -15 44 -15 22 0 23 -3 23 -82 0 -118
8 -158 31 -158 18 0 19 11 19 165 0 158 -1 165 -20 165 -11 0 -20 -7 -20 -15
0 -24 -30 -17 -67 15 -36 32 -60 37 -85 18z"/>
<path d="M150 90 c-10 -51 -10 -74 -2 -82 20 -20 40 1 53 56 11 50 10 58 -6
76 -10 11 -21 20 -25 20 -4 0 -13 -32 -20 -70z"/>
</g>
</svg>
