<?xml version="1.0" encoding="utf-8"?>
<svg version="1.0" width="48.000000pt" height="48.000000pt" viewBox="0 0 48.000000 48.000000" preserveAspectRatio="xMidYMid meet" xmlns="http://www.w3.org/2000/svg">
  <g transform="matrix(0.107617, 0, 0, -0.118314, -1.316048, 51.227074)" fill="#000000" stroke="none" style="">
    <path d="M 172.832 353.581 C 115.832 269.581 30.355 129.58 33.355 120.58 C 35.355 113.58 119 109 240 109 C 411 109 430.661 109.062 429.661 125.062 C 428.661 151.062 310 322 297 317 C 285 313 220 212 220 198 C 220 176 256.457 190.258 278.457 225.258 C 292.457 247.258 298.669 246.917 301.669 246.917 C 306.669 246.917 358.749 173.673 367.749 150.673 C 369.749 146.673 323.46 146.772 240.46 147.772 C 157.46 147.772 104.896 152.801 104.896 154.801 C 104.896 165.801 201.745 312.031 209.745 312.031 C 213.745 312.031 223 306.349 229 297.349 C 236 283.349 249.887 291.406 258.887 300.406 C 267.887 309.406 262.695 321.667 246.695 344.667 C 219.695 382.667 196.832 387.581 172.832 353.581 Z" style="stroke: rgb(0, 0, 0);"/>
  </g>
</svg>